<?xml version="1.0" encoding="utf-8"?>
<!-- Generator: Adobe Illustrator 16.0.0, SVG Export Plug-In . SVG Version: 6.00 Build 0)  -->
<!DOCTYPE svg PUBLIC "-//W3C//DTD SVG 1.1//EN" "http://www.w3.org/Graphics/SVG/1.1/DTD/svg11.dtd">
<svg version="1.1" id="Ebene_1" xmlns="http://www.w3.org/2000/svg" xmlns:xlink="http://www.w3.org/1999/xlink" x="0px" y="0px"
	 width="559.311px" height="612px" viewBox="0 0 559.311 612" enable-background="new 0 0 559.311 612" xml:space="preserve">
<g id="BG">
	<polygon fill="#FFFFFF" points="49.248,607.219 49.248,4.781 376.706,4.781 501.841,129.897 501.841,607.219 	"/>
	<path fill="#666666" d="M371.844,14.493l119.646,120.63V599.16H58.156V14.493H371.844 M378.695,0H44.467v612h462.155V127.927
		L378.695,0L378.695,0z"/>
	<polygon fill="#999999" points="506.622,127.927 378.676,127.927 378.676,0 	"/>
	<polygon fill="#E30520" points="460.779,566.493 0.001,566.493 0.001,426.5 559.311,426.5 	"/>
	<polygon fill="#999999" points="44.467,610.939 44.467,566.493 0.001,566.493 	"/>
</g>
<g id="Texte">
	<g id="pdf">
		<g>
			<path fill="#FFFFFF" d="M107.268,510.102v34.56H77.656v-95.107h40.621c10.126,0,17.824,1.163,23.098,3.484
				c5.271,2.323,9.452,5.876,12.542,10.66c3.089,4.785,4.633,10.149,4.633,16.096c0,9.058-3.159,16.374-9.476,21.947
				c-6.317,5.574-14.748,8.361-25.292,8.361L107.268,510.102L107.268,510.102z M106.85,489.687h9.754
				c8.594,0,12.891-3.157,12.891-9.476c0-5.945-3.971-8.919-11.914-8.919h-10.73V489.687z"/>
			<path fill="#FFFFFF" d="M172.987,544.66v-95.107h36.788c15.979,0,27.939,4.739,35.883,14.215
				c7.942,9.477,11.915,20.438,11.915,32.887c0,14.215-4.263,25.77-12.786,34.663c-8.524,8.896-19.591,13.344-33.201,13.344
				L172.987,544.66L172.987,544.66z M202.179,522.782h7.596c4.831,0,8.906-2.347,12.229-7.038c3.32-4.69,4.981-11.078,4.981-19.159
				c0-6.921-1.476-12.891-4.425-17.908c-2.949-5.016-7.211-7.523-12.785-7.523h-7.596V522.782L202.179,522.782z"/>
			<path fill="#FFFFFF" d="M332.905,509.056H301.9v35.604h-28.428v-95.107h68.771v22.646H301.9v15.468h31.005V509.056
				L332.905,509.056z"/>
		</g>
	</g>
</g>
<g id="Symbol">
	<g id="Ebene_7">
		<path fill="#E30520" stroke="#E30520" stroke-width="0.5334" stroke-miterlimit="2.6131" d="M159.566,317.454
			c-38.557,28.795-65.078,69.686-54.617,76.076l-9.145-4.604C80.656,372,95.804,344,159.566,317.454L159.566,317.454
			L159.566,317.454z"/>
		<path fill="#E30520" stroke="#E30520" stroke-width="0.5334" stroke-miterlimit="2.6131" d="M448.953,286.531
			c21.203-74.031-147.343-52.708-261.129,18.031C269.156,254,447.529,251.5,449.148,285.186l0,0L448.953,286.531z"/>
		<path fill="#E30520" stroke="#E30520" stroke-width="0.5334" stroke-miterlimit="2.6131" d="M265.43,61.407
			c4.438-23.342-7.018-23.094-10.212-23.094h-7.125c-3.965,0-12.104,0.522-15.938,10.521c-16.599,43.29-4.5,145.341,63.999,207.167
			c49.563,44.733,147.82,53.918,151.373,32.862c-18.308,8.785-87.37-11.855-130.871-51.863
			c-54.05-49.711-80.45-153.756-68.688-188.345c1.173-3.448,4.179-6.762,5.438-7.655C258.318,43.45,264.091,48.77,265.43,61.407
			L265.43,61.407L265.43,61.407z"/>
		<path fill="#E30520" stroke="#E30520" stroke-width="0.5334" stroke-miterlimit="2.6131" d="M264.476,68.146
			c-5.032,24.765-15.791,80.915-63.569,177.104c-51.299,103.312-80.171,153.837-105.103,143.676l8.912,4.569
			c19.531,9.969,61.559-7.2,120.799-134.495C275.544,151.5,263.321,121.649,264.476,68.146L264.476,68.146L264.476,68.146z"/>
	</g>
</g>
</svg>
